<svg width="248" height="248" viewBox="0 0 248 248" fill="none" xmlns="http://www.w3.org/2000/svg">
<path d="M181.78 247.483H65.665C29.4016 247.483 0 218.075 0 181.804V65.6792C0 29.4079 29.4016 0 65.665 0H181.765C218.028 0 247.43 29.4079 247.43 65.6792V181.804C247.43 218.075 218.043 247.483 181.78 247.483Z" fill="url(#paint0_linear_1456_94)"/>
<path d="M163.5 89.5L144 93.5L100 63L36 117L99.5 204.5L34.5 162L85.5 246.5H179C220.5 247.5 247.5 215 247.5 180.5V168L163.5 89.5Z" fill="url(#paint1_linear_1456_94)"/>
<path d="M223 78.5714H225V76.5714V70.4286V68.4286H223H206.571V52V50H204.571H198.429H196.429V52V68.4286H180H178V70.4286V76.5714V78.5714H180H196.429V95V97H198.429H204.571H206.571V95V78.5714H223Z" fill="white" stroke="white" stroke-width="4"/>
<g filter="url(#filter0_d_1456_94)">
<g filter="url(#filter1_i_1456_94)">
<path d="M38.6939 120.107C35.8763 118.259 34.179 115.116 34.179 111.746L34.179 98.5305C34.179 95.1687 35.8682 92.0318 38.6749 90.1815L96.2037 52.2559C99.5289 50.0638 103.838 50.0538 107.173 52.2305L135.386 70.6432L164.558 89.6814C167.387 91.5277 169.092 94.6776 169.092 98.0558L169.092 98.487C169.092 106.469 160.201 111.234 153.555 106.814L107.619 76.2647C104.313 74.0665 100.021 74.0315 96.6799 76.1755L68.6794 94.1456L64.9237 96.7277C59.0744 100.749 59.1602 109.414 65.0879 113.319L102.459 137.937C108.596 141.979 108.377 151.065 102.09 154.87C98.7954 156.865 94.6296 156.801 91.4091 154.688L38.6939 120.107Z" fill="white"/>
</g>
<g filter="url(#filter2_i_1456_94)">
<path d="M169.449 137.94L169.411 161.94L101.84 206.333L34.4973 162.231L34.536 137.725L101.38 182.331L134.913 160.885L150.93 149.911L87.9953 108.311L104.682 95.6453L169.449 137.94Z" fill="white"/>
</g>
</g>
<defs>
<filter id="filter0_d_1456_94" x="24.1797" y="44.605" width="155.27" height="175.728" filterUnits="userSpaceOnUse" color-interpolation-filters="sRGB">
<feFlood flood-opacity="0" result="BackgroundImageFix"/>
<feColorMatrix in="SourceAlpha" type="matrix" values="0 0 0 0 0 0 0 0 0 0 0 0 0 0 0 0 0 0 127 0" result="hardAlpha"/>
<feOffset dy="4"/>
<feGaussianBlur stdDeviation="5"/>
<feComposite in2="hardAlpha" operator="out"/>
<feColorMatrix type="matrix" values="0 0 0 0 0 0 0 0 0 0 0 0 0 0 0 0 0 0 0.25 0"/>
<feBlend mode="normal" in2="BackgroundImageFix" result="effect1_dropShadow_1456_94"/>
<feBlend mode="normal" in="SourceGraphic" in2="effect1_dropShadow_1456_94" result="shape"/>
</filter>
<filter id="filter1_i_1456_94" x="34.1797" y="50.605" width="134.914" height="109.716" filterUnits="userSpaceOnUse" color-interpolation-filters="sRGB">
<feFlood flood-opacity="0" result="BackgroundImageFix"/>
<feBlend mode="normal" in="SourceGraphic" in2="BackgroundImageFix" result="shape"/>
<feColorMatrix in="SourceAlpha" type="matrix" values="0 0 0 0 0 0 0 0 0 0 0 0 0 0 0 0 0 0 127 0" result="hardAlpha"/>
<feOffset dy="4"/>
<feGaussianBlur stdDeviation="2"/>
<feComposite in2="hardAlpha" operator="arithmetic" k2="-1" k3="1"/>
<feColorMatrix type="matrix" values="0 0 0 0 0 0 0 0 0 0 0 0 0 0 0 0 0 0 0.25 0"/>
<feBlend mode="normal" in2="shape" result="effect1_innerShadow_1456_94"/>
</filter>
<filter id="filter2_i_1456_94" x="34.4961" y="95.645" width="134.953" height="114.688" filterUnits="userSpaceOnUse" color-interpolation-filters="sRGB">
<feFlood flood-opacity="0" result="BackgroundImageFix"/>
<feBlend mode="normal" in="SourceGraphic" in2="BackgroundImageFix" result="shape"/>
<feColorMatrix in="SourceAlpha" type="matrix" values="0 0 0 0 0 0 0 0 0 0 0 0 0 0 0 0 0 0 127 0" result="hardAlpha"/>
<feOffset dy="4"/>
<feGaussianBlur stdDeviation="2"/>
<feComposite in2="hardAlpha" operator="arithmetic" k2="-1" k3="1"/>
<feColorMatrix type="matrix" values="0 0 0 0 0 0 0 0 0 0 0 0 0 0 0 0 0 0 0.25 0"/>
<feBlend mode="normal" in2="shape" result="effect1_innerShadow_1456_94"/>
</filter>
<linearGradient id="paint0_linear_1456_94" x1="28.5" y1="231.5" x2="231" y2="22.5" gradientUnits="userSpaceOnUse">
<stop offset="0.0104167" stop-color="#3D894B"/>
<stop offset="1" stop-color="#63A871"/>
</linearGradient>
<linearGradient id="paint1_linear_1456_94" x1="75" y1="93" x2="186" y2="271.5" gradientUnits="userSpaceOnUse">
<stop offset="0.239583" stop-color="#3B8548"/>
<stop offset="0.734375" stop-color="#3B8548" stop-opacity="0.13913"/>
<stop offset="1" stop-color="#3B8548" stop-opacity="0"/>
</linearGradient>
</defs>
</svg>
